<svg id="SVG_lock_icon" xmlns="http://www.w3.org/2000/svg" width="9.993" height="13.464" viewBox="0 0 9.993 13.464">
  <path id="Caminho_17" data-name="Caminho 17" d="M8.941,5.181V3.945a3.945,3.945,0,1,0-7.889,0V5.181A1.317,1.317,0,0,0,0,6.469V7.962a.263.263,0,0,0,.526,0V6.469a.79.79,0,0,1,.789-.789H8.678a.79.79,0,0,1,.789.789v5.68a.79.79,0,0,1-.526.744V11.308a.263.263,0,1,0-.526,0v1.63h-7.1a.79.79,0,0,1-.789-.789V10.072a.263.263,0,1,0-.526,0v2.077a1.316,1.316,0,0,0,1.315,1.315H8.678a1.316,1.316,0,0,0,1.315-1.315V6.469A1.317,1.317,0,0,0,8.941,5.181ZM3,5.154V3.945a2,2,0,1,1,4,0v1.21Zm4.523,0V3.945a2.524,2.524,0,1,0-5.049,0v1.21H1.578V3.945a3.419,3.419,0,1,1,6.837,0v1.21Zm0,0"/>
  <path id="Caminho_18" data-name="Caminho 18" d="M.263,333.014A.263.263,0,1,0,0,332.751a.263.263,0,0,0,.263.263Zm0,0" transform="translate(0 -323.745)"/>
  <path id="Caminho_19" data-name="Caminho 19" d="M137.546,280.7a.79.79,0,0,0,.789-.789v-1.4a1.42,1.42,0,1,0-1.578,0v1.4A.79.79,0,0,0,137.546,280.7Zm-.891-3.368a.894.894,0,1,1,1.3.8.263.263,0,0,0-.144.234v1.547a.263.263,0,1,1-.526,0v-1.551a.263.263,0,0,0-.142-.234A.891.891,0,0,1,136.655,277.334Zm0,0" transform="translate(-132.549 -268.658)"/>
  <path id="Caminho_20" data-name="Caminho 20" d="M320.263,379.526a.263.263,0,1,0-.186-.077A.264.264,0,0,0,320.263,379.526Zm0,0" transform="translate(-311.585 -369.034)"/>
</svg>
