<svg xmlns="http://www.w3.org/2000/svg" width="276.107" height="269.263" viewBox="0 0 276.107 269.263">
  <g id="SVG_ilustration" transform="translate(-338.893 -249)">
    <circle id="Elipse_1" data-name="Elipse 1" cx="97" cy="97" r="97" transform="translate(392 278)" fill="#f6f6f6"/>
    <g id="Retângulo_1" data-name="Retângulo 1" transform="translate(428 336)" fill="#465765" stroke="#33424d" stroke-width="4">
      <path d="M3,0H118a3,3,0,0,1,3,3V72a0,0,0,0,1,0,0H0a0,0,0,0,1,0,0V3A3,3,0,0,1,3,0Z" stroke="none"/>
      <path d="M3,2H118a1,1,0,0,1,1,1V68a2,2,0,0,1-2,2H4a2,2,0,0,1-2-2V3A1,1,0,0,1,3,2Z" fill="none"/>
    </g>
    <g id="Elipse_4" data-name="Elipse 4" transform="translate(607 468)" fill="none" stroke="#43b809" stroke-width="1">
      <circle cx="4" cy="4" r="4" stroke="none"/>
      <circle cx="4" cy="4" r="3.5" fill="none"/>
    </g>
    <g id="Polígono_3" data-name="Polígono 3" transform="translate(612.5 301.5) rotate(90)" fill="none">
      <path d="M5.5,0,11,10H0Z" stroke="none"/>
      <path d="M 5.5 2.075047492980957 L 1.691275596618652 9 L 9.308724403381348 9 L 5.5 2.075047492980957 M 5.5 0 L 11 10 L 0 10 L 5.5 0 Z" stroke="none" fill="#1992c8"/>
    </g>
    <g id="Retângulo_4" data-name="Retângulo 4" transform="translate(549 249)" fill="none" stroke="#dcdcdc" stroke-width="1">
      <rect width="8" height="8" stroke="none"/>
      <rect x="0.5" y="0.5" width="7" height="7" fill="none"/>
    </g>
    <g id="Polígono_4" data-name="Polígono 4" transform="translate(434.58 508.737) rotate(120)" fill="none">
      <path d="M5.5,0,11,10H0Z" stroke="none"/>
      <path d="M 5.5 2.075047492980957 L 1.691275596618652 9 L 9.308724403381348 9 L 5.5 2.075047492980957 M 5.5 0 L 11 10 L 0 10 L 5.5 0 Z" stroke="none" fill="#1992c8"/>
    </g>
    <g id="Elipse_5" data-name="Elipse 5" transform="translate(383 253)" fill="none" stroke="#43b809" stroke-width="1">
      <circle cx="7" cy="7" r="7" stroke="none"/>
      <circle cx="7" cy="7" r="6.5" fill="none"/>
    </g>
    <g id="Retângulo_5" data-name="Retângulo 5" transform="translate(349.5 380.893) rotate(45)" fill="none" stroke="#dcdcdc" stroke-width="1">
      <rect width="15" height="15" stroke="none"/>
      <rect x="0.5" y="0.5" width="14" height="14" fill="none"/>
    </g>
    <path id="Retângulo_2" data-name="Retângulo 2" d="M3,0H126a3,3,0,0,1,3,3V7a0,0,0,0,1,0,0H0A0,0,0,0,1,0,7V3A3,3,0,0,1,3,0Z" transform="translate(553 413) rotate(180)" fill="#e5e7e6"/>
    <rect id="Retângulo_7" data-name="Retângulo 7" width="28" height="3" transform="translate(475 406)" fill="#fff"/>
    <path id="Caminho_1" data-name="Caminho 1" d="M43.327,24.956a24.956,24.956,0,1,1,49.912,0Z" transform="translate(419.818 342.804)" fill="#fc7a6e"/>
    <path id="Caminho_2" data-name="Caminho 2" d="M70.716.119Q69.515,0,68.283,0A24.984,24.984,0,0,0,43.327,24.956h4.865A24.99,24.99,0,0,1,70.716.119Z" transform="translate(419.818 342.804)" fill="#f75747"/>
    <path id="Caminho_3" data-name="Caminho 3" d="M93.153,205.173s.732,16.281-9.276,24.052H52.517c-10.008-7.771-9.276-24.052-9.276-24.052Z" transform="translate(419.904 162.587)" fill="#fc7a6e"/>
    <path id="Caminho_4" data-name="Caminho 4" d="M48.106,205.172H43.241s-.732,16.281,9.276,24.052h4.865C47.375,221.453,48.106,205.172,48.106,205.172Z" transform="translate(419.904 162.588)" fill="#f75747"/>
    <path id="Caminho_5" data-name="Caminho 5" d="M366.737,171.406a5.656,5.656,0,1,0,5.711-5.656A5.656,5.656,0,0,0,366.737,171.406Z" transform="translate(135.746 197.215)" fill="#ffcabd"/>
    <path id="Caminho_6" data-name="Caminho 6" d="M141.578,362.662l-5.865,8.134h-22.36l-5.987-8.134c2.352-6.793,7.105-9.342,7.105-9.342h20S139.226,355.869,141.578,362.662Z" transform="translate(363.567 32.46)" fill="#358bd8"/>
    <path id="Caminho_7" data-name="Caminho 7" d="M111.016,362.661c2.352-6.793,7.105-9.342,7.105-9.342h-3.649s-4.753,2.549-7.105,9.342Z" transform="translate(363.567 32.461)" fill="#007dcf"/>
    <path id="Caminho_8" data-name="Caminho 8" d="M104.067,430.123v8.135H96.794a24.728,24.728,0,0,1,1.286-8.135Z" transform="translate(372.854 -35.001)" fill="#ffdcce"/>
    <path id="Caminho_9" data-name="Caminho 9" d="M98.08,430.123a24.727,24.727,0,0,0-1.286,8.135h3.649a24.728,24.728,0,0,1,1.286-8.135Z" transform="translate(372.854 -35.001)" fill="#ffcabd"/>
    <path id="Caminho_10" data-name="Caminho 10" d="M347.567,438.258h-7.151v-8.135h5.865A24.73,24.73,0,0,1,347.567,438.258Z" transform="translate(158.865 -35.001)" fill="#ffdcce"/>
    <path id="Caminho_11" data-name="Caminho 11" d="M218.753,403.858l-1.795-1.229,1.084-1.886a.459.459,0,0,0-.533-.668l-2.08.637-.8-2.023a.459.459,0,0,0-.854,0l-.8,2.023-2.08-.637a.459.459,0,0,0-.533.668l1.084,1.886-1.795,1.229a.459.459,0,0,0,.19.833l2.15.329-.158,2.17a.459.459,0,0,0,.769.371l1.6-1.476,1.6,1.476a.459.459,0,0,0,.769-.371l-.158-2.17,2.15-.329A.459.459,0,0,0,218.753,403.858Z" transform="translate(273.898 -7.135)" fill="#e8e8e8"/>
    <path id="Caminho_12" data-name="Caminho 12" d="M118.849,100.831a4.643,4.643,0,0,0-4.294-3.866c-5.289-.334-15.677-1.472-21.836-5.329a9.136,9.136,0,0,0-13.124,3.94,20.71,20.71,0,1,0,39.254,5.255Z" transform="translate(389.627 263.53)" fill="#ffdcce"/>
    <path id="Caminho_13" data-name="Caminho 13" d="M45.826,104.23a20.574,20.574,0,0,1,1.9-8.654,9.149,9.149,0,0,1,6.5-5.139,9.164,9.164,0,0,0-10.145,5.139,20.494,20.494,0,0,0-1.334,3.861,5.656,5.656,0,0,0,.176,11.309c.108,0,.21,0,.31-.01a20.661,20.661,0,0,0,19.667,14.145c.615,0,1.223-.025,1.825-.076A20.654,20.654,0,0,1,45.826,104.23Z" transform="translate(425.149 263.53)" fill="#ffcabd"/>
    <g id="Grupo_7" data-name="Grupo 7" transform="translate(472.176 367.383)">
      <g id="Grupo_6" data-name="Grupo 6">
        <g id="Grupo_4" data-name="Grupo 4">
          <ellipse id="Elipse_6" data-name="Elipse 6" cx="4.292" cy="3.418" rx="4.292" ry="3.418" fill="#ff9db0"/>
        </g>
        <g id="Grupo_5" data-name="Grupo 5" transform="translate(23.265)">
          <ellipse id="Elipse_7" data-name="Elipse 7" cx="4.292" cy="3.418" rx="4.292" ry="3.418" fill="#ff9db0"/>
        </g>
      </g>
    </g>
    <g id="Grupo_8" data-name="Grupo 8" transform="translate(476.015 364.126)">
      <path id="Caminho_14" data-name="Caminho 14" d="M154.131,179.163a.912.912,0,0,1-.912-.912,1.131,1.131,0,0,0-2.261,0,.912.912,0,1,1-1.825,0,2.955,2.955,0,0,1,5.91,0A.912.912,0,0,1,154.131,179.163Z" transform="translate(-149.133 -175.296)" fill="#423e4f"/>
    </g>
    <g id="Grupo_9" data-name="Grupo 9" transform="translate(494.277 364.126)">
      <path id="Caminho_15" data-name="Caminho 15" d="M304.273,179.163a.912.912,0,0,1-.912-.912,1.131,1.131,0,0,0-2.261,0,.912.912,0,0,1-1.825,0,2.955,2.955,0,0,1,5.91,0A.912.912,0,0,1,304.273,179.163Z" transform="translate(-299.275 -175.296)" fill="#423e4f"/>
    </g>
    <g id="Grupo_10" data-name="Grupo 10" transform="translate(485.022 368.557)">
      <path id="Caminho_16" data-name="Caminho 16" d="M226.263,214.536a3.787,3.787,0,0,1-2.855-1.3.912.912,0,0,1,1.376-1.2,1.96,1.96,0,0,0,2.959,0,.912.912,0,0,1,1.376,1.2,3.787,3.787,0,0,1-2.855,1.3Z" transform="translate(-223.183 -211.724)" fill="#423e4f"/>
    </g>
  </g>
</svg>
