<svg xmlns="http://www.w3.org/2000/svg" width="13.204" height="13.204" viewBox="0 0 13.204 13.204">
  <g id="SVG_email_icon" transform="translate(0 0)">
    <g id="Grupo_12" data-name="Grupo 12" transform="translate(1.393 0)">
      <g id="Grupo_11" data-name="Grupo 11" transform="translate(0 0)">
        <path id="Caminho_21" data-name="Caminho 21" d="M65.681.034a.258.258,0,0,0-.259,0L60.7,2.83a.258.258,0,0,0,.263.444l3.391-2.005L58.033,7.823l-3.141-.961,4.1-2.424a.258.258,0,0,0-.263-.444l-4.6,2.722a.258.258,0,0,0,.056.469l3.752,1.148,1.655,3.013.005.008a.257.257,0,0,0,.4.052l1.9-1.86,3.58,1.1a.258.258,0,0,0,.333-.247V.258A.258.258,0,0,0,65.681.034ZM59.6,8.49a.258.258,0,0,0-.046.147v1.578l-1.13-2.057,5-5.189Zm.47,2.117V8.986l1.263.387Zm5.223-.563-5.068-1.55L65.3,1.178Z" transform="translate(-53.999 0)"/>
      </g>
    </g>
    <g id="Grupo_14" data-name="Grupo 14" transform="translate(1.393 8.888)">
      <g id="Grupo_13" data-name="Grupo 13">
        <path id="Caminho_22" data-name="Caminho 22" d="M56.847,344.724a.258.258,0,0,0-.365,0l-2.407,2.408a.258.258,0,0,0,.365.365l2.407-2.408A.258.258,0,0,0,56.847,344.724Z" transform="translate(-53.999 -344.648)"/>
      </g>
    </g>
    <g id="Grupo_16" data-name="Grupo 16" transform="translate(0 12.095)">
      <g id="Grupo_15" data-name="Grupo 15" transform="translate(0)">
        <path id="Caminho_23" data-name="Caminho 23" d="M1.034,469.076a.258.258,0,0,0-.365,0l-.593.593a.258.258,0,0,0,.365.365l.593-.593A.258.258,0,0,0,1.034,469.076Z" transform="translate(0 -469.001)"/>
      </g>
    </g>
    <g id="Grupo_18" data-name="Grupo 18" transform="translate(3.239 12.673)">
      <g id="Grupo_17" data-name="Grupo 17">
        <path id="Caminho_24" data-name="Caminho 24" d="M126.02,491.486a.258.258,0,1,0,.076.182A.26.26,0,0,0,126.02,491.486Z" transform="translate(-125.58 -491.41)"/>
      </g>
    </g>
    <g id="Grupo_20" data-name="Grupo 20" transform="translate(3.882 10.754)">
      <g id="Grupo_19" data-name="Grupo 19">
        <path id="Caminho_25" data-name="Caminho 25" d="M152.25,417.082a.258.258,0,0,0-.365,0l-1.275,1.275a.258.258,0,1,0,.365.365l1.275-1.275A.258.258,0,0,0,152.25,417.082Z" transform="translate(-150.534 -417.006)"/>
      </g>
    </g>
    <g id="Grupo_22" data-name="Grupo 22" transform="translate(8.28 10.656)">
      <g id="Grupo_21" data-name="Grupo 21">
        <path id="Caminho_26" data-name="Caminho 26" d="M322.772,413.287a.258.258,0,0,0-.365,0l-1.279,1.279a.258.258,0,0,0,.365.365l1.279-1.279A.258.258,0,0,0,322.772,413.287Z" transform="translate(-321.053 -413.211)"/>
      </g>
    </g>
    <g id="Grupo_24" data-name="Grupo 24" transform="translate(6.871 3.44)">
      <g id="Grupo_23" data-name="Grupo 23">
        <path id="Caminho_27" data-name="Caminho 27" d="M266.87,133.456a.258.258,0,1,0,.076.183A.26.26,0,0,0,266.87,133.456Z" transform="translate(-266.43 -133.38)"/>
      </g>
    </g>
  </g>
</svg>
